# xmcd
#
# Track frame offsets: 
#        150
#        17343
#        35480
#        54893
#        74105
#        89563
#        105000
#        127223
#        146605
#        165445
#        180695
#
# Disc length: 2785 seconds
#
# Revision: 4
# Processed by: cddbd v1.5.2PL0 Copyright (c) Steve Scherf et al.
# Submitted via: ExactAudioCopy v0.95a4
#
DISCID=8f0adf0b,930adf0b
DTITLE=Wolle Kriwanek Band - Gute Unterhaltung
DYEAR=1995
DGENRE=Blues
TTITLE0=Gute Unterhaltung
TTITLE1=Gib Deim Herz'n Stoss
TTITLE2=Die Grosse Flut
TTITLE3=Komm Vorbei
TTITLE4=Schwätzer
TTITLE5=Kopf Hoch, Fritz
TTITLE6=Morgasonn
TTITLE7=Auf'm Wasa
TTITLE8=Faul wie'd Sau
TTITLE9=In meiner Stube
TTITLE10=Sing Hallelujah (Mahalia)
EXTD=Year: 1995\n\n\nWolle Kriwanek  -  Schwäbische Vokalakrobatik\n\n
EXTD=Paul Vincent  -  Westfälische Gitarren aller Art\n\nMick Brehmen 
EXTD= Westfälische Bässe en gros\n\nDieter Stümpfl  -  Bayrisches S
EXTD=chlagwerk\n\nUli Elsner  -  Bayrischer Live- und Studio-Sound
EXTT0=
EXTT1=
EXTT2=
EXTT3=
EXTT4=
EXTT5=
EXTT6=
EXTT7=
EXTT8=
EXTT9=
EXTT10=
PLAYORDER=
